<svg width="153" height="298" viewBox="0 0 153 298" fill="none" xmlns="http://www.w3.org/2000/svg">
<path d="M144.033 76.7033C153.994 87.2567 153.877 100.016 152.03 112.887C149.634 129.597 140.281 142.225 126.858 152.041C124.649 153.672 122.324 155.141 119.467 157.088C122.152 162.983 124.807 168.923 127.544 174.819C131.615 183.627 135.756 192.408 139.856 201.201C143.089 208.164 141.676 211.816 134.674 215.315C108.563 228.303 90.7521 248.081 84.9492 277.216C83.6356 283.798 83.8226 290.653 83.2742 297.947H69.4322C69.1006 291.631 69.3599 285.362 68.3205 279.335C63.219 249.567 45.5445 229.233 19.2038 215.746C11.0053 211.565 9.7044 208.451 13.5879 200.12C19.3186 187.853 25.0393 175.575 30.7502 163.287C31.6599 161.325 32.4379 159.308 32.9289 158.111C25.8846 151.61 18.7404 146.074 12.8801 139.429C1.04461 125.978 -1.53802 109.616 0.764025 92.475C2.61119 78.6926 17.1611 66.3814 33.4433 63.8296C49.97 61.2502 64.3456 65.4876 76.3404 77.8858C77.8411 76.5165 79.1696 75.2916 80.513 74.0942C98.2343 58.382 127.997 59.7068 144.033 76.7033ZM112.597 143.881C128.561 134.54 138.404 121.305 138.187 101.958C138.073 90.887 134.219 83.8811 123.733 80.4355C117.686 78.4463 110.642 77.6396 104.362 78.5482C90.2611 80.6224 83.9395 88.9275 83.8672 103.126C83.8226 112.265 83.8672 121.384 83.8672 130.776H68.9879C68.9879 120.441 68.7413 110.395 69.0602 100.358C69.3471 91.2627 64.743 85.5095 57.3395 81.4312C50.8287 77.8561 43.7356 77.077 36.4808 78.1427C24.8771 79.8411 15.9431 87.3565 14.9887 96.4959C13.2882 112.728 18.1367 126.61 30.8819 137.221C53.0415 155.676 87.5488 158.529 112.597 143.881ZM124.447 203.88C123.942 202.394 123.638 201.169 123.119 200.046C118.124 189.247 112.929 178.536 108.135 167.639C106.548 164.019 104.888 163.285 101.064 164.41C86.3415 168.762 71.3728 168.936 56.3915 165.684C46.8262 163.607 46.7922 163.523 42.6494 172.329C37.7859 182.71 33.0373 193.147 28.1441 203.749C46.3735 213.463 60.6661 226.598 72.2975 243.608C72.2975 231.772 72.2677 219.924 72.3251 208.088C72.3549 205.088 72.0233 202.84 69.2217 200.634C64.1203 196.611 64.3137 188.856 68.8604 184.531C73.1116 180.498 80.1261 180.625 84.3349 184.82C88.7987 189.278 88.2885 196.337 83.6122 201.053C82.069 202.624 80.783 205.218 80.7256 207.381C80.4237 218.208 80.5385 229.048 80.5683 239.875C80.581 241.149 80.8999 242.423 81.2315 244.82C92.3017 226.543 106.62 213.455 124.447 203.882V203.88Z" fill="black"/>
<path d="M145.65 12.7402C147.094 13.0438 148.378 14.0671 149.749 14.7592C148.378 15.6084 147.109 16.8822 145.621 17.2239C137.033 19.1346 128.431 21.0304 119.756 22.4422C116.177 23.0324 115.137 24.4888 115.367 27.8346C115.613 31.4819 114.255 35.9019 115.902 38.6023C117.403 41.0671 121.992 41.6148 125.198 43.086C136.759 48.4062 146.545 55.671 151.957 67.823C143.644 60.7598 134.55 55.4121 123.725 53.1914C108.063 49.9921 93.5154 52.4123 79.7733 60.5008C78.2428 61.3946 75.3414 61.8998 74.0724 61.0634C52.8821 47.194 21.9225 48.2619 1.37625 67.9397C3.62728 57.2718 17.1228 46.6463 37.346 39.7848C37.346 35.3733 37.5585 30.8046 37.1865 26.2763C37.0866 25.0025 35.4116 23.1492 34.1405 22.8456C27.2131 21.2173 20.1837 19.9774 12.6718 18.5062V35.7618H3.13202V13.5618C12.7738 11.615 22.5878 9.61307 32.4187 7.63658C44.8175 5.15695 57.1716 2.30367 69.6575 0.399362C75.0693 -0.422229 80.8871 0.125503 86.3138 1.12118C106.144 4.73873 125.891 8.77663 145.65 12.7402Z" fill="black"/>
<path d="M117.244 103.013C117.331 109.595 112.163 114.56 105.234 114.533C98.7104 114.488 93.8895 109.514 94.0192 102.971C94.1488 96.6021 99.3884 91.3498 105.595 91.3944C111.672 91.4432 117.156 96.9163 117.244 103.013Z" fill="black"/>
<path d="M47.2386 91.3944C53.6474 91.3498 59.0613 96.9141 58.9444 103.432C58.8275 109.949 53.8429 114.647 47.211 114.545C40.579 114.444 35.722 109.616 35.7326 103.113C35.7347 96.9629 41.1487 91.4432 47.2386 91.3944Z" fill="black"/>
</svg>
