<svg width="50" height="50" viewBox="0 0 50 50" fill="none" xmlns="http://www.w3.org/2000/svg">
<g clip-path="url(#clip0_409_60)">
<path d="M48.9583 9.43749C46.4806 8.08286 43.6736 7.44785 40.8541 7.60416C36.4583 7.97916 33.7916 12.3229 35.4166 15.5312C34.7414 16.1382 34.1177 16.8002 33.5521 17.5104C30.9181 21.0045 29.2964 25.1561 28.8646 29.5104L30.9479 33.6771C30.9479 33.6771 31.375 25.6979 34.5937 20.1354C35.198 19.0895 35.8696 18.0839 36.6041 17.125C39.6041 20 43.5833 17.2083 45.5521 14.9167C46.6672 13.5867 47.864 12.3273 49.1354 11.1458C49.2642 11.0363 49.3643 10.897 49.4273 10.7401C49.4902 10.5831 49.5139 10.4132 49.4965 10.245C49.4791 10.0769 49.421 9.91546 49.3272 9.77477C49.2334 9.63407 49.1068 9.51831 48.9583 9.43749V9.43749Z" fill="#6DD627"/>
<path d="M40.8542 9.92708C43.5489 9.7823 46.233 10.3652 48.625 11.6146C48.8021 11.4375 48.9792 11.2708 49.1354 11.1354C49.262 11.0257 49.3602 10.887 49.4218 10.7312C49.4834 10.5753 49.5064 10.407 49.4891 10.2403C49.4717 10.0737 49.4144 9.91371 49.322 9.77394C49.2296 9.63418 49.1048 9.51877 48.9583 9.43749C46.4807 8.08286 43.6736 7.44785 40.8542 7.60416C36.8646 7.94791 34.3021 11.5625 35.0937 14.625C35.4531 13.3439 36.1993 12.2051 37.2303 11.3642C38.2614 10.5233 39.527 10.0214 40.8542 9.92708Z" fill="#9CEB60"/>
<path d="M33.5521 19.8437C34.115 19.1279 34.7388 18.4623 35.4166 17.8541C35.1218 17.2754 34.9582 16.6388 34.9375 15.9896C34.4475 16.4701 33.985 16.9778 33.5521 17.5104C30.9181 21.0045 29.2964 25.1561 28.8646 29.5104L29.1146 30.0104C29.7632 26.3165 31.2845 22.831 33.5521 19.8437Z" fill="#9CEB60"/>
<path d="M48.9583 9.43749C46.4806 8.08286 43.6736 7.44785 40.8541 7.60416C36.4583 7.97916 33.7916 12.3229 35.4166 15.5312C34.7414 16.1382 34.1177 16.8002 33.5521 17.5104C30.9181 21.0045 29.2964 25.1561 28.8646 29.5104L30.9479 33.6771C30.9479 33.6771 31.375 25.6979 34.5937 20.1354C35.198 19.0895 35.8696 18.0839 36.6041 17.125C39.6041 20 43.5833 17.2083 45.5521 14.9167C46.6672 13.5867 47.864 12.3273 49.1354 11.1458C49.2642 11.0363 49.3643 10.897 49.4273 10.7401C49.4902 10.5831 49.5139 10.4132 49.4965 10.245C49.4791 10.0769 49.421 9.91546 49.3272 9.77477C49.2334 9.63407 49.1068 9.51831 48.9583 9.43749V9.43749Z" stroke="#45413C" stroke-width="0.5" stroke-linecap="round" stroke-linejoin="round"/>
<path opacity="0.15" d="M18.0729 48.3229C18.0729 48.5431 18.3833 48.7612 18.9863 48.9647C19.5894 49.1682 20.4733 49.353 21.5876 49.5088C22.7019 49.6645 24.0248 49.788 25.4807 49.8723C26.9366 49.9566 28.497 50 30.0729 50C31.6487 50 33.2092 49.9566 34.6651 49.8723C36.121 49.788 37.4439 49.6645 38.5582 49.5088C39.6725 49.353 40.5564 49.1682 41.1594 48.9647C41.7625 48.7612 42.0729 48.5431 42.0729 48.3229C42.0729 48.1027 41.7625 47.8846 41.1594 47.6811C40.5564 47.4776 39.6725 47.2928 38.5582 47.137C37.4439 46.9813 36.121 46.8578 34.6651 46.7735C33.2092 46.6892 31.6487 46.6458 30.0729 46.6458C28.497 46.6458 26.9366 46.6892 25.4807 46.7735C24.0248 46.8578 22.7019 46.9813 21.5876 47.137C20.4733 47.2928 19.5894 47.4776 18.9863 47.6811C18.3833 47.8846 18.0729 48.1027 18.0729 48.3229V48.3229Z" fill="#45413C"/>
<path d="M28.8646 23.7708C27.0481 19.4315 24.2489 15.5733 20.6875 12.5C21.0417 10.2604 21.3646 4.16664 15.1146 1.6458C9.37498 -0.708363 3.65623 1.19789 1.14582 2.32289C0.994828 2.39008 0.861991 2.49223 0.758282 2.6209C0.654574 2.74958 0.582969 2.90108 0.549385 3.0629C0.5158 3.22471 0.521199 3.3922 0.565136 3.55152C0.609073 3.71083 0.690287 3.85741 0.802068 3.97914C2.67408 6.0073 4.30635 8.24425 5.66665 10.6458C8.85415 16.3021 15.6875 19.6875 20.0729 13.9375C22.7595 17.0861 24.6938 20.8051 25.7292 24.8125C29.3854 38.2916 27.4896 44.0521 26.6667 46.2812C26.5461 46.6033 26.5414 46.9573 26.6536 47.2824C26.7658 47.6075 26.9877 47.8833 27.2812 48.0625C28.081 48.5238 28.9833 48.778 29.9062 48.802C32.3541 48.9062 32.5104 47.2395 32.5104 47.2395C33.0442 39.2433 31.799 31.2282 28.8646 23.7708V23.7708Z" fill="#6DD627"/>
<path d="M20.8333 14.8021C21.4576 15.6 22.0383 16.4311 22.5729 17.2917C25.2919 20.0182 27.4474 23.2533 28.9166 26.8125C31.2344 32.7214 32.5068 38.9884 32.6771 45.3334C32.8752 37.9669 31.5966 30.6354 28.9166 23.7709C27.1113 19.4796 24.346 15.6595 20.8333 12.6042C20.8978 13.3354 20.8978 14.0709 20.8333 14.8021V14.8021Z" fill="#9CEB60"/>
<path d="M1.79165 5.09375C4.54165 3.97916 9.79165 2.51041 15.1146 4.6875C16.6446 5.24991 17.9849 6.23243 18.9818 7.52222C19.9786 8.81201 20.5915 10.3568 20.75 11.9792C21.0521 9.45833 20.9687 3.97916 15.1146 1.5625C9.2604 -0.854171 3.65624 1.125 1.14582 2.25C0.981371 2.31296 0.83557 2.41659 0.722038 2.55119C0.608506 2.68579 0.53095 2.84698 0.496616 3.01969C0.462282 3.1924 0.472291 3.37099 0.525709 3.53878C0.579126 3.70658 0.674207 3.85809 0.802068 3.97916C1.04165 4.29166 1.41665 4.65625 1.79165 5.09375Z" fill="#9CEB60"/>
<path d="M28.8646 23.7708C27.0481 19.4315 24.2489 15.5733 20.6875 12.5C21.0417 10.2604 21.3646 4.16664 15.1146 1.6458C9.37498 -0.708363 3.65623 1.19789 1.14582 2.32289C0.994828 2.39008 0.861991 2.49223 0.758282 2.6209C0.654574 2.74958 0.582969 2.90108 0.549385 3.0629C0.5158 3.22471 0.521199 3.3922 0.565136 3.55152C0.609073 3.71083 0.690287 3.85741 0.802068 3.97914C2.67408 6.0073 4.30635 8.24425 5.66665 10.6458C8.85415 16.3021 15.6875 19.6875 20.0729 13.9375C22.7595 17.0861 24.6938 20.8051 25.7292 24.8125C29.3854 38.2916 27.4896 44.0521 26.6667 46.2812C26.5461 46.6033 26.5414 46.9573 26.6536 47.2824C26.7658 47.6075 26.9877 47.8833 27.2812 48.0625C28.081 48.5238 28.9833 48.778 29.9062 48.802C32.3541 48.9062 32.5104 47.2395 32.5104 47.2395C33.0442 39.2433 31.799 31.2282 28.8646 23.7708V23.7708Z" stroke="#45413C" stroke-width="0.5" stroke-linecap="round" stroke-linejoin="round"/>
<path d="M36.4583 15.125C36.4583 15.125 37.4375 10.3021 43.75 10.4271Z" fill="#6DD627"/>
<path d="M36.4583 15.125C36.4583 15.125 37.4375 10.3021 43.75 10.4271" stroke="#45413C" stroke-width="0.5" stroke-linecap="round" stroke-linejoin="round"/>
<path d="M18.75 11.4583C18.4271 5.91667 10.9271 4.6875 10.9271 4.6875Z" fill="#6DD627"/>
<path d="M18.75 11.4583C18.4271 5.91667 10.9271 4.6875 10.9271 4.6875" stroke="#45413C" stroke-width="0.5" stroke-linecap="round" stroke-linejoin="round"/>
</g>
<defs>
<clipPath id="clip0_409_60">
<rect width="50" height="50" fill="white"/>
</clipPath>
</defs>
</svg>
